<svg width="102" height="36" viewBox="0 0 102 36" fill="none" xmlns="http://www.w3.org/2000/svg">
<path fill-rule="evenodd" clip-rule="evenodd" d="M44.9686 20.0378L47.8486 25.0418H50.2966L47.2006 19.8578C48.1846 19.6178 48.9106 19.1678 49.3786 18.5078C49.8586 17.8358 50.0986 17.0918 50.0986 16.2758C50.0986 15.5798 49.9306 14.9498 49.5946 14.3858C49.2706 13.8218 48.7726 13.3718 48.1006 13.0358C47.4406 12.6998 46.6306 12.5318 45.6706 12.5318H41.3506V25.0418H43.4026V20.0378H44.9686ZM45.6706 18.3998H43.4026V14.2058H45.6706C46.4506 14.2058 47.0326 14.3918 47.4166 14.7638C47.8006 15.1238 47.9926 15.6278 47.9926 16.2758C47.9926 16.9238 47.7946 17.4398 47.3986 17.8238C47.0146 18.2078 46.4386 18.3998 45.6706 18.3998Z" fill="#3F434A"/>
<path fill-rule="evenodd" clip-rule="evenodd" d="M54.4876 24.5738C55.2436 24.9938 56.0896 25.2038 57.0256 25.2038C57.9736 25.2038 58.8376 24.9938 59.6176 24.5738C60.4096 24.1418 61.0336 23.5358 61.4896 22.7558C61.9456 21.9758 62.1736 21.0818 62.1736 20.0738C62.1736 19.0658 61.9516 18.1718 61.5076 17.3918C61.0636 16.6118 60.4576 16.0118 59.6896 15.5918C58.9216 15.1718 58.0636 14.9618 57.1156 14.9618C56.1676 14.9618 55.3096 15.1718 54.5416 15.5918C53.7736 16.0118 53.1676 16.6118 52.7236 17.3918C52.2796 18.1718 52.0576 19.0658 52.0576 20.0738C52.0576 21.0938 52.2736 21.9938 52.7056 22.7738C53.1376 23.5418 53.7316 24.1418 54.4876 24.5738ZM58.5016 23.0438C58.0456 23.2958 57.5536 23.4218 57.0256 23.4218C56.1976 23.4218 55.5076 23.1338 54.9556 22.5578C54.4156 21.9698 54.1456 21.1418 54.1456 20.0738C54.1456 19.3538 54.2776 18.7478 54.5416 18.2558C54.8056 17.7518 55.1596 17.3738 55.6036 17.1218C56.0596 16.8698 56.5516 16.7438 57.0796 16.7438C57.6076 16.7438 58.0996 16.8698 58.5556 17.1218C59.0116 17.3738 59.3776 17.7518 59.6536 18.2558C59.9296 18.7478 60.0676 19.3538 60.0676 20.0738C60.0676 20.7938 59.9236 21.4058 59.6356 21.9098C59.3476 22.4138 58.9696 22.7918 58.5016 23.0438Z" fill="#3F434A"/>
<path d="M64.1301 17.3918C63.7222 18.1598 63.5182 19.0538 63.5182 20.0738C63.5182 21.0938 63.7222 21.9938 64.1301 22.7738C64.5501 23.5418 65.1262 24.1418 65.8582 24.5738C66.5902 24.9938 67.4302 25.2038 68.3782 25.2038C69.5541 25.2038 70.5382 24.9098 71.3302 24.3218C72.1222 23.7218 72.6621 22.9178 72.9502 21.9098H70.7362C70.3521 22.9538 69.5662 23.4758 68.3782 23.4758C67.5382 23.4758 66.8661 23.1758 66.3622 22.5758C65.8701 21.9758 65.6241 21.1418 65.6241 20.0738C65.6241 19.0058 65.8701 18.1778 66.3622 17.5898C66.8661 16.9898 67.5382 16.6898 68.3782 16.6898C68.9781 16.6898 69.4762 16.8278 69.8722 17.1038C70.2682 17.3798 70.5562 17.7638 70.7362 18.2558H72.9502C72.6742 17.1998 72.1402 16.3898 71.3482 15.8258C70.5681 15.2498 69.5781 14.9618 68.3782 14.9618C67.4302 14.9618 66.5902 15.1718 65.8582 15.5918C65.1262 16.0118 64.5501 16.6118 64.1301 17.3918Z" fill="#3F434A"/>
<path d="M83.4911 25.0418L78.9191 20.0918L83.4911 15.1238H80.6471L77.0471 19.4618V11.7218H74.9951V25.0418H77.0471V20.7758L80.7191 25.0418H83.4911Z" fill="#3F434A"/>
<path fill-rule="evenodd" clip-rule="evenodd" d="M93.9799 20.8478C94.0279 20.5478 94.0519 20.2118 94.0519 19.8398C94.0519 18.8798 93.8479 18.0338 93.4399 17.3018C93.0319 16.5578 92.4619 15.9818 91.7299 15.5738C90.9979 15.1658 90.1639 14.9618 89.2279 14.9618C88.2559 14.9618 87.3919 15.1718 86.6359 15.5918C85.8919 16.0118 85.3099 16.6118 84.8899 17.3918C84.4819 18.1598 84.2779 19.0538 84.2779 20.0738C84.2779 21.0938 84.4879 21.9938 84.9079 22.7738C85.3399 23.5418 85.9279 24.1418 86.6719 24.5738C87.4279 24.9938 88.2799 25.2038 89.2279 25.2038C90.3919 25.2038 91.3639 24.9158 92.1439 24.3398C92.9359 23.7518 93.4819 23.0018 93.7819 22.0898H91.5679C91.1119 23.0138 90.3319 23.4758 89.2279 23.4758C88.4599 23.4758 87.8119 23.2358 87.2839 22.7558C86.7559 22.2758 86.4619 21.6398 86.4019 20.8478H93.9799ZM91.0999 17.3738C91.6279 17.8298 91.8979 18.4358 91.9099 19.1918H86.4199C86.5159 18.4238 86.8159 17.8178 87.3199 17.3738C87.8239 16.9178 88.4299 16.6898 89.1379 16.6898C89.9179 16.6898 90.5719 16.9178 91.0999 17.3738Z" fill="#3F434A"/>
<path d="M98.4653 22.2878V16.7978H100.877V15.1238H98.4653V12.6578H96.3953V15.1238H95.2253V16.7978H96.3953V22.2878C96.3953 23.2598 96.6413 23.9618 97.1333 24.3938C97.6253 24.8258 98.3333 25.0418 99.2573 25.0418H100.877V23.3318H99.6173C99.1973 23.3318 98.8973 23.2538 98.7173 23.0978C98.5493 22.9298 98.4653 22.6598 98.4653 22.2878Z" fill="#3F434A"/>
<path d="M8.1335 21.5262L13.1184 21.5638C13.7266 21.5684 14.245 22.0034 14.3551 22.6016L15.2578 27.5042C15.3542 28.0279 15.003 28.5306 14.4779 28.6206L8.31056 29.6783C7.73066 29.7777 7.20158 29.3337 7.19881 28.7454L7.16944 22.4881C7.16694 21.9553 7.60101 21.5222 8.1335 21.5262Z" fill="#FF965D"/>
<path d="M14.5062 7.33013L26.4837 6.35682C26.9992 6.31493 27.4528 6.69161 27.5064 7.20602L28.7853 19.5003C28.8467 20.0906 28.36 20.5949 27.7682 20.5542L4.81274 18.9763C4.29472 18.9407 4.03754 18.3322 4.37205 17.9335L12.3213 8.45998C12.8699 7.80617 13.657 7.39914 14.5062 7.33013Z" fill="#304FFD"/>
<path d="M19.4905 31.0301L26.03 23.2366C26.3697 22.8317 26.0986 22.2144 25.5716 22.1929L17.6803 21.8707C17.0554 21.8452 16.5736 22.4184 16.7062 23.0296L18.3828 30.7589C18.4947 31.2748 19.1504 31.4353 19.4905 31.0301Z" fill="#304FFD"/>
</svg>
